<svg xmlns="http://www.w3.org/2000/svg" width="52.833" height="56.014" viewBox="0 0 52.833 56.014"><defs><style>.a{fill:#65b2ff;}</style></defs><g transform="translate(405 -33)"><g transform="translate(-405 33)"><path class="a" d="M38.3,35.35l7.382-7.826,4.3-3.261a.921.921,0,0,0,.22-.242L52.7,20.064a.976.976,0,0,0-.11-1.179L50.1,16.243a.843.843,0,0,0-1.111-.116L45.252,18.77a.9.9,0,0,0-.228.233l-3.075,4.558-4.071,4.316V8.112c0-.015-.007-.027-.008-.042,0-.046.008-.093.008-.135C37.878,2.781,28.126,0,18.948,0S.018,2.781.018,7.935c0,.045.007.093.008.133,0,.015-.008.027-.008.042v28.7c0,4.5,7.713,7.906,18.07,8.086l-2.232,2.366a2.921,2.921,0,0,0,0,3.961l3.735,3.962a2.541,2.541,0,0,0,3.736,0l6.956-7.375a2.868,2.868,0,0,0,.774-1.982V44.515a.908.908,0,0,1,.88-.933h1.245a2.546,2.546,0,0,0,1.868-.821l.144-.153L46.73,54.837a3.637,3.637,0,0,0,2.641,1.177,3.334,3.334,0,0,0,2.316-.933,3.89,3.89,0,0,0,.125-5.414ZM18.948,1.867c10.118,0,17.166,3.2,17.166,6.068S29.066,14,18.948,14,1.782,10.8,1.782,7.932,8.83,1.867,18.948,1.867ZM1.782,36.817V30.805a11.939,11.939,0,0,0,3.38,2.166,35.087,35.087,0,0,0,13.79,2.5.935.935,0,0,0,0-1.867,33.379,33.379,0,0,1-13.1-2.352c-2.583-1.151-4.066-2.61-4.066-4V20.978a12.174,12.174,0,0,0,3.406,1.97,31.9,31.9,0,0,0,7.935,1.913.759.759,0,0,0,.1.007.906.906,0,0,0,.865-.881.921.921,0,0,0-.765-.979,30.226,30.226,0,0,1-7.51-1.8c-2.529-1.018-4.038-2.337-4.038-3.524V11.426C5,14.333,12.129,15.869,18.944,15.869s13.951-1.537,17.166-4.44v6.254c0,1.009-1.1,2.127-3.013,3.068a.958.958,0,0,0-.428,1.24.86.86,0,0,0,1.169.453,10.618,10.618,0,0,0,2.27-1.46v8.759l-1.55,1.643L31.179,27.8a8.747,8.747,0,0,0-2.116-8.845,7.584,7.584,0,0,0-8.477-1.58.924.924,0,0,0-.522.68.971.971,0,0,0,.239.839l3.49,3.71a1.93,1.93,0,0,1,0,2.636,1.726,1.726,0,0,1-2.489,0l-3.5-3.7a.849.849,0,0,0-.792-.254.894.894,0,0,0-.641.554,8.8,8.8,0,0,0,1.494,8.991,7.632,7.632,0,0,0,8.345,2.251l1.509,1.6-.144.153a2.869,2.869,0,0,0-.774,1.98v1.32a.908.908,0,0,1-.88.933H24.679a2.549,2.549,0,0,0-1.868.821l-2.966,3.145c-.3.007-.6.013-.9.013-10.118,0-17.169-3.284-17.169-6.234ZM25.039,21.284l-2.452-2.6A5.992,5.992,0,0,1,28.5,21.047a6.862,6.862,0,0,1,.852,6.637.974.974,0,0,0,.189,1.027l3.78,4.008L32.042,34.07a2.6,2.6,0,0,0-2.938-.56l-2.049-2.172a.845.845,0,0,0-.969-.2,5.893,5.893,0,0,1-6.257-.908A6.757,6.757,0,0,1,17.6,23.967l.9.944.032.033,1.531,1.62a3.393,3.393,0,0,0,3.435,1.042,3.634,3.634,0,0,0,2.527-2.679,3.883,3.883,0,0,0-.983-3.642Zm9.483,19.374-.73.774a.852.852,0,0,1-.615.284H31.932a2.724,2.724,0,0,0-2.641,2.8v1.321a.957.957,0,0,1-.257.661L22.082,53.87a.869.869,0,0,1-1.245,0L17.1,49.909a.974.974,0,0,1,0-1.32l6.953-7.374a.863.863,0,0,1,.623-.273H25.92a2.724,2.724,0,0,0,2.641-2.8v-1.32a.962.962,0,0,1,.257-.66l.729-.773a.869.869,0,0,1,1.245,0l.616.653L33.9,38.684h.006l.616.653a.974.974,0,0,1,0,1.321Zm.007-3.95-1.247-1.322,1.9-2.018L37.614,30.8l.008-.009,5.626-5.957c.018-.019.024-.044.04-.063s.039-.032.054-.053l3.018-4.486,3-2.118,1.47,1.558-2,3.18L44.6,26.058c-.021.016-.032.04-.051.057a.69.69,0,0,0-.059.042ZM50.507,53.7a1.792,1.792,0,0,1-2.531-.181L36.315,41.154a2.926,2.926,0,0,0-.534-3.126L37.06,36.67l13.51,14.322a1.948,1.948,0,0,1-.062,2.708Z" transform="translate(-0.018)"/><path class="a" d="M35.657,145.375a1.025,1.025,0,0,0-.291-.2.835.835,0,0,0-.669,0,.906.906,0,0,0-.29.2,1.087,1.087,0,0,0-.189.308.928.928,0,0,0,0,.709.972.972,0,0,0,.189.308.857.857,0,0,0,1.251,0,1.014,1.014,0,0,0,.256-.663.841.841,0,0,0-.071-.355,1.091,1.091,0,0,0-.186-.307Z" transform="translate(-30.63 -129.235)"/><path class="a" d="M35.657,239.2a1.025,1.025,0,0,0-.291-.2.834.834,0,0,0-.669,0,.905.905,0,0,0-.291.2,1.088,1.088,0,0,0-.189.308.928.928,0,0,0,0,.709.972.972,0,0,0,.189.308.857.857,0,0,0,1.251,0,1.013,1.013,0,0,0,.256-.658.841.841,0,0,0-.071-.355,1.092,1.092,0,0,0-.186-.312Z" transform="translate(-30.63 -212.795)"/><path class="a" d="M35.657,324.575a1.025,1.025,0,0,0-.291-.2.834.834,0,0,0-.669,0,.906.906,0,0,0-.29.2,1.088,1.088,0,0,0-.189.308.928.928,0,0,0,0,.709.971.971,0,0,0,.189.308.857.857,0,0,0,1.251,0,1.014,1.014,0,0,0,.256-.663.841.841,0,0,0-.071-.355,1.091,1.091,0,0,0-.186-.307Z" transform="translate(-30.63 -288.831)"/><path class="a" d="M60.579,46.382a.835.835,0,0,0,.283-.048l5.282-1.867a.916.916,0,0,0,.6-.7.969.969,0,0,0-.282-.9.844.844,0,0,0-.878-.177L60.305,44.56a.938.938,0,0,0-.6,1.037.9.9,0,0,0,.877.784Z" transform="translate(-53.535 -37.981)"/><path class="a" d="M85.407,48.577a.868.868,0,0,0,1.124.566l12.327-4.668a.918.918,0,0,0,.59-.711.966.966,0,0,0-.3-.893.842.842,0,0,0-.882-.155L85.94,47.384a.95.95,0,0,0-.533,1.193Z" transform="translate(-76.55 -37.995)"/></g></g></svg>