<svg xmlns="http://www.w3.org/2000/svg" width="52.833" height="56.009" viewBox="0 0 52.833 56.009"><defs><style>.a{fill:#65b2ff;}</style></defs><g transform="translate(-5.73 0)"><path class="a" d="M43.852,31.3A2.6,2.6,0,1,0,46.3,33.9a2.529,2.529,0,0,0-2.452-2.6Zm0,3.535a.941.941,0,1,1,.886-.939.97.97,0,0,1-.258.667.862.862,0,0,1-.628.277Zm0,0" transform="translate(-33.4 -28.88)"/><path class="a" d="M107.472,31.3a2.6,2.6,0,1,0,2.452,2.6,2.529,2.529,0,0,0-2.452-2.6Zm0,3.535a.941.941,0,1,1,.886-.939.97.97,0,0,1-.258.667.862.862,0,0,1-.628.277Zm0,0" transform="translate(-90.457 -28.88)"/><path class="a" d="M171.1,31.3a2.6,2.6,0,1,0,2.452,2.6,2.529,2.529,0,0,0-2.452-2.6Zm0,3.535a.941.941,0,1,1,.886-.939.97.97,0,0,1-.258.667.862.862,0,0,1-.628.277Zm0,0" transform="translate(-147.516 -28.88)"/><path class="a" d="M49.964,0H2.865A2.958,2.958,0,0,0,0,3.038V39.6a2.958,2.958,0,0,0,2.865,3.038H7.907a.865.865,0,0,0,.064,1.1l3.755,3.981a17.571,17.571,0,0,0-.738,1.886H5.679a.759.759,0,0,0-.553.243.854.854,0,0,0-.228.586V55.18a.854.854,0,0,0,.228.586.759.759,0,0,0,.553.243H21.1a.806.806,0,0,0,.782-.829,4.46,4.46,0,0,1,4.324-4.585,4.461,4.461,0,0,1,4.325,4.585.807.807,0,0,0,.781.829H46.734a.806.806,0,0,0,.782-.829V50.431a.806.806,0,0,0-.782-.829h-5.31a17.571,17.571,0,0,0-.738-1.884l3.755-3.981a.866.866,0,0,0,.063-1.1h5.458A2.959,2.959,0,0,0,52.828,39.6V19.1a.783.783,0,1,0-1.563,0V39.6a1.344,1.344,0,0,1-1.3,1.381H42.951L38.345,36.1V30.435a.806.806,0,0,0-.782-.829H36.157V24.5l1.1-1.079a.863.863,0,0,0,.216-.855L35.6,16.16a.789.789,0,0,0-.746-.583H32.77a.789.789,0,0,0-.746.583l-1.875,6.407a.863.863,0,0,0,.216.855l1.1,1.079v5.106H30.061a.806.806,0,0,0-.782.829V32.59H23.132V31.331l3-3.182a.854.854,0,0,0,.229-.586V20.769a.853.853,0,0,0-.233-.589l-4.167-4.364a.75.75,0,0,0-.85-.175.831.831,0,0,0-.481.764v7.386L18.6,25.147l-2.032-1.356v-.472a.842.842,0,0,0-.383-.742.744.744,0,0,0-.8,0,.842.842,0,0,0-.383.742v.929a.841.841,0,0,0,.365.7l2.814,1.878a.744.744,0,0,0,.833,0l2.814-1.878a.841.841,0,0,0,.365-.7v-5.86L24.8,21.115v6.1l-3,3.185a.855.855,0,0,0-.229.586V32.6a.819.819,0,0,0-.625.812v5.629a15.533,15.533,0,0,0-1.777.781l-3.537-3.75V30.988A.855.855,0,0,0,15.4,30.4l-3-3.182v-6.1L15,18.393v1.051a.842.842,0,0,0,.383.742.744.744,0,0,0,.8,0,.842.842,0,0,0,.383-.742V16.405a.831.831,0,0,0-.48-.764.75.75,0,0,0-.851.174l-4.168,4.364a.854.854,0,0,0-.232.589v6.794a.854.854,0,0,0,.229.586l3,3.182V36.1L9.46,40.985H2.865a1.267,1.267,0,0,1-.922-.406,1.426,1.426,0,0,1-.38-.979V12.041H51.27v3.206a.782.782,0,1,0,1.563,0V3.038A2.958,2.958,0,0,0,49.964,0ZM32.779,23.53l-.993-.971,1.559-5.325h.932l1.565,5.325-.992.971a.853.853,0,0,0-.252.609v5.468H33.031V24.138A.854.854,0,0,0,32.779,23.53Zm4.006,7.734v4.815l-3.537,3.75a15.609,15.609,0,0,0-1.777-.782V33.418a.819.819,0,0,0-.625-.812V31.264Zm-17.4,10.307a14.03,14.03,0,0,1,2.57-1.13.825.825,0,0,0,.553-.793v-5.4h7.4v5.4a.825.825,0,0,0,.554.793,14.029,14.029,0,0,1,2.57,1.13.749.749,0,0,0,.921-.145l3.6-3.821,4.523,4.8h0l.708.751-3.6,3.821a.867.867,0,0,0-.137.976,15.845,15.845,0,0,1,1.066,2.725.789.789,0,0,0,.747.586h5.093v3.093H38.007a12.668,12.668,0,0,0-5.691-9.9A11.246,11.246,0,0,0,21.4,43.722a.851.851,0,0,0-.375,1.084.766.766,0,0,0,1.011.43,9.76,9.76,0,0,1,9.43.6,10.983,10.983,0,0,1,4.976,8.514h-4.4a6.014,6.014,0,0,0-5.835-5.411,6.014,6.014,0,0,0-5.835,5.411h-4.4a11.033,11.033,0,0,1,3.215-7.111A.865.865,0,0,0,19.2,46.09a.751.751,0,0,0-1.084-.058,12.915,12.915,0,0,0-3.712,8.32H6.46V51.259h5.093a.789.789,0,0,0,.748-.586,15.845,15.845,0,0,1,1.066-2.725.867.867,0,0,0-.137-.976l-3.6-3.821.708-.751h0l4.522-4.795,3.6,3.821a.749.749,0,0,0,.922.145ZM1.563,10.384V3.038a1.344,1.344,0,0,1,1.3-1.381h47.1a1.344,1.344,0,0,1,1.3,1.381v7.346Zm0,0" transform="translate(5.73 0)"/></g></svg>