<svg xmlns="http://www.w3.org/2000/svg" width="55.284" height="58.613" viewBox="0 0 55.284 58.613"><defs><style>.a{fill:#65b2ff;}</style></defs><g transform="translate(0)"><path class="a" d="M41.463,30.283V26.907a8.948,8.948,0,0,0,1.5-.659l2.257,2.391a.884.884,0,0,0,1.3,0l2.608-2.765a1.018,1.018,0,0,0,0-1.381L46.871,22.1a10.122,10.122,0,0,0,.622-1.586h3.184a.95.95,0,0,0,.922-.977V15.63a.95.95,0,0,0-.922-.977H47.493a10.122,10.122,0,0,0-.622-1.586l2.255-2.393a1.018,1.018,0,0,0,0-1.381L46.518,6.529a.875.875,0,0,0-.449-.245V2.931A2.851,2.851,0,0,0,43.306,0H2.765A2.851,2.851,0,0,0,0,2.931V45.913a2.851,2.851,0,0,0,2.765,2.931h13.3a.966.966,0,0,0,.231.476L18.9,52.085a.884.884,0,0,0,1.3,0l2.257-2.391a8.948,8.948,0,0,0,1.5.659v3.376a.95.95,0,0,0,.922.977h3.685a.95.95,0,0,0,.922-.977V49.82a.923.923,0,1,0-1.843,0v2.931H25.8V49.6a.966.966,0,0,0-.714-.951A7.258,7.258,0,0,1,22.8,47.646a.883.883,0,0,0-1.144.136l-2.1,2.234-1.309-1.388.067-.07L20.351,46.4a1.021,1.021,0,0,0,.128-1.213,8.2,8.2,0,0,1-.955-2.422.934.934,0,0,0-.9-.76H15.664V40.052h2.967a.934.934,0,0,0,.9-.757,8.2,8.2,0,0,1,.951-2.424,1.021,1.021,0,0,0-.128-1.213l-2.107-2.23,1.309-1.388,2.1,2.234a.883.883,0,0,0,1.144.136,7.255,7.255,0,0,1,2.285-1.01.965.965,0,0,0,.717-.951V29.306h1.843v3.146a.966.966,0,0,0,.714.951,7.259,7.259,0,0,1,2.286,1.008.892.892,0,0,0,1.272-.3,1.013,1.013,0,0,0-.287-1.348,8.952,8.952,0,0,0-2.141-1.053V28.329a.95.95,0,0,0-.922-.977H24.878a.95.95,0,0,0-.922.977V31.7a8.948,8.948,0,0,0-1.5.659L20.2,29.973a.884.884,0,0,0-1.3,0l-2.608,2.765a1.018,1.018,0,0,0,0,1.381l2.255,2.393a10.123,10.123,0,0,0-.622,1.586H14.742a.95.95,0,0,0-.922.977v3.907a.95.95,0,0,0,.922.977h3.184a10.123,10.123,0,0,0,.622,1.586L17.281,46.89H2.765a.95.95,0,0,1-.922-.977V9.769h26.2a1,1,0,0,0,.231.9l2.255,2.393a10.122,10.122,0,0,0-.622,1.586H26.72a.95.95,0,0,0-.922.977v3.907a.95.95,0,0,0,.922.977H29.9a10.123,10.123,0,0,0,.622,1.586l-2.255,2.393a1.018,1.018,0,0,0,0,1.381l2.608,2.765a.884.884,0,0,0,1.3,0l2.257-2.391a8.948,8.948,0,0,0,1.5.659v3.376a.95.95,0,0,0,.922.977h3.685a.95.95,0,0,0,.922-.977ZM1.843,2.931a.95.95,0,0,1,.922-.977H43.306a.95.95,0,0,1,.922.977V7.576L42.959,8.92a8.948,8.948,0,0,0-1.5-.659V4.884a.95.95,0,0,0-.922-.977H36.856a.95.95,0,0,0-.922.977V8.26a8.948,8.948,0,0,0-1.5.659l-2.257-2.39a.884.884,0,0,0-1.3,0l-1.21,1.286H1.843ZM40.334,25.209a.966.966,0,0,0-.714.951v3.146H37.777V26.16a.966.966,0,0,0-.714-.951A7.259,7.259,0,0,1,34.777,24.2a.883.883,0,0,0-1.144.136l-2.1,2.234L30.22,25.182l2.107-2.227a1.021,1.021,0,0,0,.128-1.213A8.2,8.2,0,0,1,31.5,19.32a.934.934,0,0,0-.9-.76H27.642V16.607h2.967a.934.934,0,0,0,.9-.757,8.2,8.2,0,0,1,.951-2.424,1.021,1.021,0,0,0-.128-1.213l-2.107-2.23L31.531,8.6l2.1,2.234a.883.883,0,0,0,1.144.136,7.254,7.254,0,0,1,2.286-1.008.965.965,0,0,0,.717-.951V5.861h1.843V9.007a.966.966,0,0,0,.714.951,7.259,7.259,0,0,1,2.286,1.008.883.883,0,0,0,1.143-.136l2.1-2.23,1.309,1.388-2.107,2.227a1.021,1.021,0,0,0-.128,1.213,8.2,8.2,0,0,1,.951,2.424.934.934,0,0,0,.9.76h2.967v1.954H46.788a.934.934,0,0,0-.9.757,8.2,8.2,0,0,1-.951,2.424,1.021,1.021,0,0,0,.128,1.213l2.107,2.23-1.309,1.388-2.1-2.241a.883.883,0,0,0-1.144-.136A7.247,7.247,0,0,1,40.334,25.209Zm0,0" transform="translate(0)"/><path class="a" d="M280.878,266.746h-3.184a10.126,10.126,0,0,0-.622-1.586l2.255-2.393a1.018,1.018,0,0,0,0-1.381l-2.608-2.765a.884.884,0,0,0-1.3,0l-2.257,2.391a8.947,8.947,0,0,0-1.5-.659v-3.376a.95.95,0,0,0-.922-.977h-3.685a.95.95,0,0,0-.921.977v3.376a8.947,8.947,0,0,0-1.5.659l-2.257-2.391a.884.884,0,0,0-1.3,0l-2.608,2.765a1.018,1.018,0,0,0,0,1.381l2.255,2.393a10.125,10.125,0,0,0-.622,1.586h-3.184a.95.95,0,0,0-.921.977v3.907a.95.95,0,0,0,.921.977h3.184a10.123,10.123,0,0,0,.622,1.586l-2.255,2.393a1.018,1.018,0,0,0,0,1.381l2.608,2.765a.884.884,0,0,0,1.3,0l2.257-2.391a8.946,8.946,0,0,0,1.5.659v3.376a.95.95,0,0,0,.921.977h3.685a.95.95,0,0,0,.922-.977V279a8.948,8.948,0,0,0,1.5-.659l2.257,2.391a.884.884,0,0,0,1.3,0l2.608-2.765a1.018,1.018,0,0,0,0-1.381l-2.255-2.393a10.126,10.126,0,0,0,.622-1.586h3.184a.95.95,0,0,0,.922-.977v-3.907a.95.95,0,0,0-.921-.977Zm-.922,3.908h-2.967a.934.934,0,0,0-.9.757,8.206,8.206,0,0,1-.951,2.424,1.022,1.022,0,0,0,.128,1.213l2.107,2.23-1.309,1.388-2.1-2.234a.883.883,0,0,0-1.144-.136,7.255,7.255,0,0,1-2.286,1.008.965.965,0,0,0-.717.951V281.4h-1.841v-3.146a.966.966,0,0,0-.714-.951,7.259,7.259,0,0,1-2.286-1.008.883.883,0,0,0-1.144.136l-2.1,2.234-1.309-1.388,2.107-2.227a1.022,1.022,0,0,0,.128-1.212,8.2,8.2,0,0,1-.951-2.424.934.934,0,0,0-.9-.76h-2.967V268.7h2.968a.934.934,0,0,0,.9-.757,8.2,8.2,0,0,1,.951-2.424,1.021,1.021,0,0,0-.128-1.212l-2.107-2.23,1.309-1.388,2.1,2.234a.883.883,0,0,0,1.143.136,7.253,7.253,0,0,1,2.286-1.008.965.965,0,0,0,.717-.951v-3.146h1.843V261.1a.966.966,0,0,0,.714.951,7.259,7.259,0,0,1,2.286,1.008.883.883,0,0,0,1.144-.136l2.1-2.234,1.309,1.388-2.107,2.227a1.021,1.021,0,0,0-.128,1.212,8.2,8.2,0,0,1,.951,2.424.935.935,0,0,0,.9.76h2.966Zm0,0" transform="translate(-226.515 -224.74)"/><path class="a" d="M26.765,32H24.922a.979.979,0,0,0,0,1.954h1.843a.979.979,0,0,0,0-1.954Zm0,0" transform="translate(-21.236 -28.093)"/><path class="a" d="M67.685,32H64.922a.979.979,0,0,0,0,1.954h2.765a.979.979,0,0,0,0-1.954Zm0,0" transform="translate(-56.629 -28.093)"/><path class="a" d="M119.371,32h-6.45a.979.979,0,0,0,0,1.954h6.45a.979.979,0,0,0,0-1.954Zm0,0" transform="translate(-99.101 -28.093)"/><path class="a" d="M293.528,97.954a.979.979,0,0,0,0-1.954,5.871,5.871,0,0,0,0,11.722.979.979,0,0,0,0-1.954,3.914,3.914,0,0,1,0-7.815Zm0,0" transform="translate(-254.83 -84.278)"/><path class="a" d="M325.528,320a5.871,5.871,0,1,0,5.528,5.861A5.7,5.7,0,0,0,325.528,320Zm0,9.769a3.915,3.915,0,1,1,3.686-3.908A3.8,3.8,0,0,1,325.528,329.769Zm0,0" transform="translate(-283.144 -280.925)"/></g></svg>